<?xml version="1.0" encoding="UTF-8"?>
<svg width="13px" height="13px" viewBox="0 0 13 13" version="1.1" xmlns="http://www.w3.org/2000/svg" xmlns:xlink="http://www.w3.org/1999/xlink">
    <!-- Generator: Sketch 42 (36781) - http://www.bohemiancoding.com/sketch -->
    <title>bg</title>
    <desc>Created with Sketch.</desc>
    <defs></defs>
    <g id="Page-1" stroke="none" stroke-width="1" fill="none" fill-rule="evenodd">
        <g id="Artboard-Copy-3">
            <g id="Group" transform="translate(4.000000, 4.000000)">
                <g id="dot-grid">
                    <circle fill="#F1F1F1" cx="1.3499999" cy="1.3499999" r="0.75"></circle>
                    <circle fill="#F1F1F1" cx="1.3499999" cy="7.85571419" r="0.75"></circle>
                    <circle fill="#000000" cx="1.3499999" cy="14.3614285" r="0.75"></circle>
                    <circle fill="#000000" cx="1.3499999" cy="20.8671428" r="0.75"></circle>
                    <circle fill="#000000" cx="1.3499999" cy="27.3728571" r="0.75"></circle>
                    <circle fill="#000000" cx="1.3499999" cy="33.8785713" r="0.75"></circle>
                    <circle fill="#000000" cx="1.3499999" cy="40.3842856" r="0.75"></circle>
                    <circle fill="#000000" cx="1.3499999" cy="46.8899999" r="0.75"></circle>
                    <circle fill="#000000" cx="1.3499999" cy="53.3957142" r="0.75"></circle>
                    <circle fill="#000000" cx="1.3499999" cy="59.9014285" r="0.75"></circle>
                    <circle fill="#000000" cx="1.3499999" cy="66.4071428" r="0.75"></circle>
                    <circle fill="#000000" cx="1.3499999" cy="72.9128571" r="0.75"></circle>
                    <circle fill="#000000" cx="1.3499999" cy="79.4185713" r="0.75"></circle>
                    <circle fill="#000000" cx="1.3499999" cy="85.9242856" r="0.75"></circle>
                    <circle fill="#000000" cx="1.3499999" cy="92.4299999" r="0.75"></circle>
                    <circle fill="#000000" cx="1.3499999" cy="98.9357142" r="0.75"></circle>
                    <circle fill="#000000" cx="1.3499999" cy="105.441428" r="0.75"></circle>
                    <circle fill="#000000" cx="1.3499999" cy="111.947143" r="0.75"></circle>
                    <circle fill="#000000" cx="1.3499999" cy="118.452857" r="0.75"></circle>
                    <circle fill="#000000" cx="1.3499999" cy="124.958571" r="0.75"></circle>
                    <circle fill="#000000" cx="1.3499999" cy="131.464286" r="0.75"></circle>
                    <circle fill="#000000" cx="1.3499999" cy="137.97" r="0.75"></circle>
                    <circle fill="#000000" cx="1.3499999" cy="144.475714" r="0.75"></circle>
                    <circle fill="#000000" cx="1.3499999" cy="150.981429" r="0.75"></circle>
                    <circle fill="#000000" cx="1.3499999" cy="157.487143" r="0.75"></circle>
                    <circle fill="#000000" cx="1.3499999" cy="163.992857" r="0.75"></circle>
                    <circle fill="#000000" cx="1.3499999" cy="170.498571" r="0.75"></circle>
                    <circle fill="#000000" cx="1.3499999" cy="177.004286" r="0.75"></circle>
                    <circle fill="#000000" cx="1.3499999" cy="183.51" r="0.75"></circle>
                    <circle fill="#000000" cx="1.3499999" cy="190.015714" r="0.75"></circle>
                    <circle fill="#000000" cx="1.3499999" cy="196.521429" r="0.75"></circle>
                    <circle fill="#000000" cx="1.3499999" cy="203.027143" r="0.75"></circle>
                    <circle fill="#000000" cx="1.3499999" cy="209.532857" r="0.75"></circle>
                    <circle fill="#000000" cx="1.3499999" cy="216.038571" r="0.75"></circle>
                    <circle fill="#000000" cx="1.3499999" cy="222.544286" r="0.75"></circle>
                    <circle fill="#000000" cx="1.3499999" cy="229.05" r="0.75"></circle>
                    <circle fill="#000000" cx="1.3499999" cy="235.555714" r="0.75"></circle>
                    <circle fill="#000000" cx="1.3499999" cy="242.061429" r="0.75"></circle>
                    <circle fill="#000000" cx="1.3499999" cy="248.567143" r="0.75"></circle>
                    <circle fill="#000000" cx="1.3499999" cy="255.072857" r="0.75"></circle>
                    <circle fill="#000000" cx="1.3499999" cy="261.578571" r="0.75"></circle>
                    <circle fill="#000000" cx="1.3499999" cy="268.084286" r="0.75"></circle>
                    <circle fill="#000000" cx="1.3499999" cy="274.59" r="0.75"></circle>
                    <circle fill="#000000" cx="1.3499999" cy="281.095714" r="0.75"></circle>
                    <circle fill="#000000" cx="1.3499999" cy="287.601429" r="0.75"></circle>
                    <circle fill="#000000" cx="1.3499999" cy="294.107143" r="0.75"></circle>
                    <circle fill="#000000" cx="1.3499999" cy="300.612857" r="0.75"></circle>
                    <circle fill="#000000" cx="1.3499999" cy="307.118571" r="0.75"></circle>
                    <circle fill="#000000" cx="1.3499999" cy="313.624286" r="0.75"></circle>
                    <circle fill="#000000" cx="1.3499999" cy="320.13" r="0.75"></circle>
                    <circle fill="#000000" cx="1.3499999" cy="326.635714" r="0.75"></circle>
                    <circle fill="#000000" cx="1.3499999" cy="333.141429" r="0.75"></circle>
                    <circle fill="#000000" cx="1.3499999" cy="339.647143" r="0.75"></circle>
                    <circle fill="#000000" cx="1.3499999" cy="346.152857" r="0.75"></circle>
                    <circle fill="#000000" cx="1.3499999" cy="352.658571" r="0.75"></circle>
                    <circle fill="#000000" cx="1.3499999" cy="359.164286" r="0.75"></circle>
                    <circle fill="#000000" cx="1.3499999" cy="365.67" r="0.75"></circle>
                    <circle fill="#000000" cx="1.3499999" cy="372.175714" r="0.75"></circle>
                    <circle fill="#000000" cx="1.3499999" cy="378.681429" r="0.75"></circle>
                    <circle fill="#000000" cx="1.3499999" cy="385.187143" r="0.75"></circle>
                    <circle fill="#000000" cx="1.3499999" cy="391.692857" r="0.75"></circle>
                    <circle fill="#000000" cx="1.3499999" cy="398.198571" r="0.75"></circle>
                    <circle fill="#000000" cx="1.3499999" cy="404.704286" r="0.75"></circle>
                    <circle fill="#000000" cx="1.3499999" cy="411.21" r="0.75"></circle>
                    <circle fill="#000000" cx="1.3499999" cy="417.715714" r="0.75"></circle>
                    <circle fill="#000000" cx="1.3499999" cy="424.221429" r="0.75"></circle>
                    <circle fill="#000000" cx="1.3499999" cy="430.727143" r="0.75"></circle>
                    <circle fill="#000000" cx="1.3499999" cy="437.232857" r="0.75"></circle>
                    <circle fill="#000000" cx="1.3499999" cy="443.738571" r="0.75"></circle>
                    <circle fill="#000000" cx="1.3499999" cy="450.244286" r="0.75"></circle>
                    <circle fill="#000000" cx="1.3499999" cy="456.75" r="0.75"></circle>
                </g>
            </g>
            <g id="Group" transform="translate(10.446154, 4.000000)">
                <g id="dot-grid">
                    <circle fill="#F1F1F1" cx="1.3499999" cy="1.3499999" r="0.75"></circle>
                    <circle fill="#F1F1F1" cx="1.3499999" cy="7.85571419" r="0.75"></circle>
                    <circle fill="#000000" cx="1.3499999" cy="14.3614285" r="0.75"></circle>
                    <circle fill="#000000" cx="1.3499999" cy="20.8671428" r="0.75"></circle>
                    <circle fill="#000000" cx="1.3499999" cy="27.3728571" r="0.75"></circle>
                    <circle fill="#000000" cx="1.3499999" cy="33.8785713" r="0.75"></circle>
                    <circle fill="#000000" cx="1.3499999" cy="40.3842856" r="0.75"></circle>
                    <circle fill="#000000" cx="1.3499999" cy="46.8899999" r="0.75"></circle>
                    <circle fill="#000000" cx="1.3499999" cy="53.3957142" r="0.75"></circle>
                    <circle fill="#000000" cx="1.3499999" cy="59.9014285" r="0.75"></circle>
                    <circle fill="#000000" cx="1.3499999" cy="66.4071428" r="0.75"></circle>
                    <circle fill="#000000" cx="1.3499999" cy="72.9128571" r="0.75"></circle>
                    <circle fill="#000000" cx="1.3499999" cy="79.4185713" r="0.75"></circle>
                    <circle fill="#000000" cx="1.3499999" cy="85.9242856" r="0.75"></circle>
                    <circle fill="#000000" cx="1.3499999" cy="92.4299999" r="0.75"></circle>
                    <circle fill="#000000" cx="1.3499999" cy="98.9357142" r="0.75"></circle>
                    <circle fill="#000000" cx="1.3499999" cy="105.441428" r="0.75"></circle>
                    <circle fill="#000000" cx="1.3499999" cy="111.947143" r="0.75"></circle>
                    <circle fill="#000000" cx="1.3499999" cy="118.452857" r="0.75"></circle>
                    <circle fill="#000000" cx="1.3499999" cy="124.958571" r="0.75"></circle>
                    <circle fill="#000000" cx="1.3499999" cy="131.464286" r="0.75"></circle>
                    <circle fill="#000000" cx="1.3499999" cy="137.97" r="0.75"></circle>
                    <circle fill="#000000" cx="1.3499999" cy="144.475714" r="0.75"></circle>
                    <circle fill="#000000" cx="1.3499999" cy="150.981429" r="0.75"></circle>
                    <circle fill="#000000" cx="1.3499999" cy="157.487143" r="0.75"></circle>
                    <circle fill="#000000" cx="1.3499999" cy="163.992857" r="0.75"></circle>
                    <circle fill="#000000" cx="1.3499999" cy="170.498571" r="0.75"></circle>
                    <circle fill="#000000" cx="1.3499999" cy="177.004286" r="0.75"></circle>
                    <circle fill="#000000" cx="1.3499999" cy="183.51" r="0.75"></circle>
                    <circle fill="#000000" cx="1.3499999" cy="190.015714" r="0.75"></circle>
                    <circle fill="#000000" cx="1.3499999" cy="196.521429" r="0.75"></circle>
                    <circle fill="#000000" cx="1.3499999" cy="203.027143" r="0.75"></circle>
                    <circle fill="#000000" cx="1.3499999" cy="209.532857" r="0.75"></circle>
                    <circle fill="#000000" cx="1.3499999" cy="216.038571" r="0.75"></circle>
                    <circle fill="#000000" cx="1.3499999" cy="222.544286" r="0.75"></circle>
                    <circle fill="#000000" cx="1.3499999" cy="229.05" r="0.75"></circle>
                    <circle fill="#000000" cx="1.3499999" cy="235.555714" r="0.75"></circle>
                    <circle fill="#000000" cx="1.3499999" cy="242.061429" r="0.75"></circle>
                    <circle fill="#000000" cx="1.3499999" cy="248.567143" r="0.75"></circle>
                    <circle fill="#000000" cx="1.3499999" cy="255.072857" r="0.75"></circle>
                    <circle fill="#000000" cx="1.3499999" cy="261.578571" r="0.75"></circle>
                    <circle fill="#000000" cx="1.3499999" cy="268.084286" r="0.75"></circle>
                    <circle fill="#000000" cx="1.3499999" cy="274.59" r="0.75"></circle>
                    <circle fill="#000000" cx="1.3499999" cy="281.095714" r="0.75"></circle>
                    <circle fill="#000000" cx="1.3499999" cy="287.601429" r="0.75"></circle>
                    <circle fill="#000000" cx="1.3499999" cy="294.107143" r="0.75"></circle>
                    <circle fill="#000000" cx="1.3499999" cy="300.612857" r="0.75"></circle>
                    <circle fill="#000000" cx="1.3499999" cy="307.118571" r="0.75"></circle>
                    <circle fill="#000000" cx="1.3499999" cy="313.624286" r="0.75"></circle>
                    <circle fill="#000000" cx="1.3499999" cy="320.13" r="0.75"></circle>
                    <circle fill="#000000" cx="1.3499999" cy="326.635714" r="0.75"></circle>
                    <circle fill="#000000" cx="1.3499999" cy="333.141429" r="0.75"></circle>
                    <circle fill="#000000" cx="1.3499999" cy="339.647143" r="0.75"></circle>
                    <circle fill="#000000" cx="1.3499999" cy="346.152857" r="0.75"></circle>
                    <circle fill="#000000" cx="1.3499999" cy="352.658571" r="0.75"></circle>
                    <circle fill="#000000" cx="1.3499999" cy="359.164286" r="0.75"></circle>
                    <circle fill="#000000" cx="1.3499999" cy="365.67" r="0.75"></circle>
                    <circle fill="#000000" cx="1.3499999" cy="372.175714" r="0.75"></circle>
                    <circle fill="#000000" cx="1.3499999" cy="378.681429" r="0.75"></circle>
                    <circle fill="#000000" cx="1.3499999" cy="385.187143" r="0.75"></circle>
                    <circle fill="#000000" cx="1.3499999" cy="391.692857" r="0.75"></circle>
                    <circle fill="#000000" cx="1.3499999" cy="398.198571" r="0.75"></circle>
                    <circle fill="#000000" cx="1.3499999" cy="404.704286" r="0.75"></circle>
                    <circle fill="#000000" cx="1.3499999" cy="411.21" r="0.75"></circle>
                    <circle fill="#000000" cx="1.3499999" cy="417.715714" r="0.75"></circle>
                    <circle fill="#000000" cx="1.3499999" cy="424.221429" r="0.75"></circle>
                    <circle fill="#000000" cx="1.3499999" cy="430.727143" r="0.75"></circle>
                    <circle fill="#000000" cx="1.3499999" cy="437.232857" r="0.75"></circle>
                    <circle fill="#000000" cx="1.3499999" cy="443.738571" r="0.75"></circle>
                    <circle fill="#000000" cx="1.3499999" cy="450.244286" r="0.75"></circle>
                    <circle fill="#000000" cx="1.3499999" cy="456.75" r="0.75"></circle>
                </g>
            </g>
        </g>
    </g>
</svg>