<?xml version="1.0" encoding="UTF-8" standalone="no"?>
<svg width="48px" height="48px" viewBox="0 0 48 48" version="1.1" xmlns="http://www.w3.org/2000/svg" xmlns:xlink="http://www.w3.org/1999/xlink">
    <!-- Generator: Sketch 3.7.1 (28215) - http://www.bohemiancoding.com/sketch -->
    <title>Group Copy 4</title>
    <desc>Created with Sketch.</desc>
    <defs></defs>
    <g id="Page-1" stroke="none" stroke-width="1" fill="none" fill-rule="evenodd">
        <g id="Artboard-6-Copy" transform="translate(-53.000000, -2.000000)" fill="#FFFFFF">
            <g id="Group-Copy-3" transform="translate(53.000000, 6.000000)">
                <path d="M13.7818223,23.8924038 L0.259049044,37.415177 C0.832621864,38.9236092 2.29563463,40 4.00989318,40 L43.9901068,40 C45.7441694,40 47.2339257,38.8777806 47.7786731,37.314207 L34.2902992,23.8258331 L27.9051817,29.7195184 C25.7301236,31.7271726 22.2718905,31.7290317 20.0948183,29.7195184 L13.7818223,23.8924038 Z M10.1047864,20.4983719 L1.33226763e-15,30.6031583 L0,11.1713031 L10.1047864,20.4983719 Z M0,4.36690536 L0,4.00002553 C0,1.79087243 1.79405245,0 4.00989318,0 L43.9901068,0 C46.2047097,0 48,1.79642476 48,4.00002553 L48,4.36690536 L24.5138649,26.0454239 C24.2532321,26.2859971 23.7470627,26.2862692 23.4861351,26.0454239 L-1.27675648e-15,4.36690536 Z M48,11.1713031 L48,30.4644661 L37.9673352,20.4318012 L48,11.1713031 Z" id="Combined-Shape"></path>
            </g>
        </g>
    </g>
</svg>