<?xml version="1.0" encoding="UTF-8" standalone="no"?>
<svg width="127px" height="30px" viewBox="0 0 127 30" version="1.1" xmlns="http://www.w3.org/2000/svg" xmlns:xlink="http://www.w3.org/1999/xlink">
    <!-- Generator: Sketch 3.8.3 (29802) - http://www.bohemiancoding.com/sketch -->
    <title>logo</title>
    <desc>Created with Sketch.</desc>
    <defs></defs>
    <g id="Page-1" stroke="none" stroke-width="1" fill="none" fill-rule="evenodd">
        <g id="Artboard-1" transform="translate(-587.000000, -30.000000)" fill="#FFFFFF">
            <g id="logo" transform="translate(587.000000, 30.000000)">
                <path d="M24.9713133,0.165308416 C25.2350455,0.165308416 25.4488426,0.37867373 25.4488426,0.641893514 L25.4488426,21.62795 C25.4488426,21.8911607 25.2356406,22.1045351 24.9713133,22.1045351 L19.5730824,22.1045351 C19.3093503,22.1045351 19.0955531,21.8911698 19.0955531,21.62795 L19.0955531,0.641893514 C19.0955531,0.378682832 19.3087551,0.165308416 19.5730824,0.165308416 L24.9713133,0.165308416 Z M7.97729645,11.1349218 L7.97729645,7.95532369 L11.3127734,7.95532369 L14.330586,7.95532369 C16.0849984,7.95532369 17.5072307,9.38005861 17.5072307,11.1350906 L17.5072307,18.9247682 C17.5072307,20.680905 16.0853842,22.1045351 14.330586,22.1045351 L11.3127734,22.1045351 L5.59481289,22.1045351 L0.513213878,22.1045351 C0.249481721,22.1045351 0.0356845649,21.8911698 0.0356845649,21.62795 L0.0356845649,0.641893514 C0.0356845649,0.378682832 0.248886572,0.165308416 0.513213878,0.165308416 L5.91144476,0.165308416 C6.17517692,0.165308416 6.38897408,0.37867373 6.38897408,0.641893514 L6.38897408,11.9298213 L6.38897408,18.7657985 C6.38897408,18.8527933 6.4599544,18.924937 6.54751306,18.924937 L10.2011312,18.924937 C10.7268887,18.924937 11.1539412,18.4972755 11.1539412,17.9697283 L11.1539412,12.0901305 C11.1539412,11.562057 10.7273537,11.1349218 10.2011312,11.1349218 L7.97729645,11.1349218 Z M54.0386454,18.924937 L54.0386454,22.1045351 L57.3741224,22.1045351 L60.3919349,22.1045351 C62.1463474,22.1045351 63.5685797,20.6798002 63.5685797,18.9247682 L63.5685797,11.1350906 C63.5685797,9.37895382 62.1467331,7.95532369 60.3919349,7.95532369 L57.3741224,7.95532369 L51.6561618,7.95532369 L46.5745628,7.95532369 C46.3108307,7.95532369 46.0970335,8.16868901 46.0970335,8.43190879 L46.0970335,29.4179653 C46.0970335,29.681176 46.3102355,29.8945504 46.5745628,29.8945504 L51.9727937,29.8945504 C52.2365259,29.8945504 52.450323,29.6811851 52.450323,29.4179653 L52.450323,18.1300375 L52.450323,11.2940603 C52.450323,11.2070655 52.5213034,11.1349218 52.608862,11.1349218 L56.2624802,11.1349218 C56.7882377,11.1349218 57.2152902,11.5625833 57.2152902,12.0901305 L57.2152902,17.9697283 C57.2152902,18.4978018 56.7887026,18.924937 56.2624802,18.924937 L54.0386454,18.924937 Z M38.1554216,8.43216806 C38.1554216,8.16881419 38.3686236,7.95532369 38.6329509,7.95532369 L44.0311818,7.95532369 C44.294914,7.95532369 44.5087111,8.16910697 44.5087111,8.43216806 L44.5087111,21.6276907 C44.5087111,21.8910446 44.2955091,22.1045351 44.0311818,22.1045351 L38.4730861,22.1045351 L32.5962933,22.1045351 L30.2138097,22.1045351 C28.4593973,22.1045351 27.037165,20.6798002 27.037165,18.9247682 L27.037165,8.43216806 C27.037165,8.16881419 27.250367,7.95532369 27.5146943,7.95532369 L32.9129252,7.95532369 C33.1766573,7.95532369 33.3904545,8.16910697 33.3904545,8.43216806 L33.3904545,17.9697283 C33.3904545,18.4972755 33.817507,18.924937 34.3432645,18.924937 L37.9968826,18.924937 C38.0844413,18.924937 38.1554216,18.8527933 38.1554216,18.7657985 L38.1554216,8.43216806 L38.1554216,8.43216806 Z M76.254027,8.43216806 C76.254027,8.26350315 76.2943122,8.10255125 76.3674776,7.95532369 L70.9542787,7.95532369 L68.3335468,7.95532369 C66.5791344,7.95532369 65.1569021,9.38005861 65.1569021,11.1350906 L65.1569021,21.6276907 C65.1569021,21.8910446 65.3701041,22.1045351 65.6344314,22.1045351 L71.0326623,22.1045351 C71.2963944,22.1045351 71.5101916,21.8907518 71.5101916,21.6276907 L71.5101916,12.0901305 C71.5101916,11.5625833 71.937244,11.1349218 72.4630015,11.1349218 L76.254027,11.1349218 L76.254027,8.43216806 L76.254027,8.43216806 Z M117.332776,11.1349218 L117.888172,11.1349218 C118.151905,11.1349218 118.365702,10.9213622 118.365702,10.6589038 L118.365702,8.43134165 C118.365702,8.16844419 118.1525,7.95532369 117.888172,7.95532369 L113.600735,7.95532369 L113.600735,4.29913003 C113.600735,4.03553345 113.387533,3.8218462 113.123205,3.8218462 L107.724974,3.8218462 C107.461242,3.8218462 107.247445,4.03668752 107.247445,4.29913003 L107.247445,7.95532369 L103.276536,7.95532369 C104.240965,8.68058271 104.864907,9.83510085 104.864962,11.1349218 L107.247445,11.1349218 L107.247445,18.9251564 C107.247445,20.6810788 108.669292,22.1045351 110.42409,22.1045351 L112.806573,22.1045351 L117.888172,22.1045351 C118.151905,22.1045351 118.365702,21.8909755 118.365702,21.6285172 L118.365702,19.400955 C118.365702,19.1380575 118.1525,18.924937 117.888172,18.924937 L117.332776,18.924937 L114.553545,18.924937 C114.027787,18.924937 113.600735,18.4972755 113.600735,17.9697283 L113.600735,11.1349218 L117.332776,11.1349218 L117.332776,11.1349218 Z M77.8634811,21.6276907 C77.8634811,21.8907518 78.0772782,22.1045351 78.3410104,22.1045351 L83.7392413,22.1045351 C84.0035686,22.1045351 84.2167706,21.8910446 84.2167706,21.6276907 L84.2167706,8.43216806 C84.2167706,8.16910697 84.0029734,7.95532369 83.7392413,7.95532369 L78.3410104,7.95532369 C78.0766831,7.95532369 77.8634811,8.16881419 77.8634811,8.43216806 L77.8634811,21.6276907 L77.8634811,21.6276907 Z M77.8634811,3.18592658 C77.8634811,1.42988306 79.2853276,0.00632851245 81.0401258,0.00632851245 C82.7945383,0.00632851245 84.2167706,1.42949695 84.2167706,3.18592658 C84.2167706,4.94197011 82.794924,6.36552466 81.0401258,6.36552466 C79.2857134,6.36552466 77.8634811,4.94235622 77.8634811,3.18592658 L77.8634811,3.18592658 Z M92.1583825,11.2940603 C92.1583825,11.2070655 92.2293628,11.1349218 92.3169215,11.1349218 L95.9705396,11.1349218 C96.4962971,11.1349218 96.9233496,11.5625833 96.9233496,12.0901305 L96.9233496,21.6276907 C96.9233496,21.8907518 97.1371468,22.1045351 97.4008789,22.1045351 L102.79911,22.1045351 C103.063437,22.1045351 103.276639,21.8910446 103.276639,21.6276907 L103.276639,11.1350906 C103.276639,9.38005861 101.854407,7.95532369 100.099994,7.95532369 L97.7175108,7.95532369 L91.840718,7.95532369 L86.2826223,7.95532369 C86.018295,7.95532369 85.805093,8.16881419 85.805093,8.43216806 L85.805093,21.6276907 C85.805093,21.8907518 86.0188901,22.1045351 86.2826223,22.1045351 L91.6808532,22.1045351 C91.9451805,22.1045351 92.1583825,21.8910446 92.1583825,21.6276907 L92.1583825,11.2940603 L92.1583825,11.2940603 Z" id="Combined-Shape-Copy-3"></path>
                <path d="M121.553982,6.90301148 L121.553982,4.56322042 L122.519974,4.56322042 L122.519974,3.81817067 L119.743269,3.81817067 L119.743269,4.56322042 L120.713443,4.56322042 L120.713443,6.90301148 L121.553982,6.90301148 Z M123.619784,4.95667366 L123.661602,4.95667366 L124.401777,6.68954217 L124.907773,6.68954217 L125.643768,4.95667366 L125.685585,4.95667366 L125.685585,6.90301148 L126.480125,6.90301148 L126.480125,3.81817067 L125.401224,3.81817067 L124.673593,5.53848217 L124.631776,5.53848217 L123.904145,3.81817067 L122.825245,3.81817067 L122.825245,6.90301148 L123.619784,6.90301148 L123.619784,4.95667366 Z" id="™"></path>
            </g>
        </g>
    </g>
</svg>