<?xml version="1.0" encoding="UTF-8"?>
<svg width="485px" height="232px" viewBox="0 0 485 232" version="1.1" xmlns="http://www.w3.org/2000/svg" xmlns:xlink="http://www.w3.org/1999/xlink">
    <!-- Generator: Sketch 42 (36781) - http://www.bohemiancoding.com/sketch -->
    <title>logo-lsd</title>
    <desc>Created with Sketch.</desc>
    <defs></defs>
    <g id="Page-1" stroke="none" stroke-width="1" fill="none" fill-rule="evenodd">
        <path d="M434.794849,116.431029 C434.802872,113.979938 434.681521,111.528847 434.418761,109.090794 C433.913299,104.39521 432.902374,99.7537825 431.405043,95.2738221 C429.311987,89.0147147 426.276205,83.0765357 422.423058,77.7170308 C419.639004,73.8448286 416.432728,70.2775084 412.879449,67.0963053 C410.655013,65.1045432 408.294183,63.266225 405.821029,61.5943884 C400.359228,57.9027085 394.336805,55.0444396 388.027553,53.1369212 C384.087153,51.9454744 380.033426,51.1251011 375.939583,50.6918477 C373.701107,50.4541601 371.452602,50.3348148 369.202091,50.3247858 C306.613023,50.2164724 244.021949,49.7511262 181.435889,50.3257887 C180.611504,50.3388264 179.788122,50.3949889 178.969754,50.5043051 C177.396202,50.7159173 175.850731,51.1090547 174.370449,51.6827142 C171.010729,52.9814715 168.025092,55.1988864 165.78461,58.0160364 C164.358484,59.809224 163.234232,61.8411022 162.48707,64.0073691 C161.680738,66.3411206 161.317687,68.818287 161.393908,71.2854243 C161.46712,73.6532744 161.960547,76.0040752 162.839089,78.2044408 C163.762761,80.5161285 165.116678,82.6533113 166.810578,84.4775889 C168.624827,86.4312407 170.821181,88.0228452 173.246196,89.1320541 C174.942103,89.9072969 176.74231,90.4498665 178.58464,90.7366963 C179.537397,90.8841228 180.498176,90.9613462 181.461964,90.9763897 C197.234594,91.1268249 213.007224,90.9773926 228.779854,90.9773926 C229.667421,90.9804013 230.554989,90.9954448 231.441554,91.0285406 C233.23073,91.0967379 235.016897,91.2321296 236.796044,91.4357185 C242.16959,92.0494942 247.469923,93.2850687 252.559648,95.1133579 C259.655175,97.6607273 266.327478,101.359428 272.255628,106.016901 C278.569895,110.977252 284.025678,117.018729 288.319099,123.80436 C291.916506,129.491814 294.692537,135.693756 296.531858,142.167484 C298.549696,149.27304 299.434255,156.693507 299.15946,164.074862 C298.859592,172.136183 297.163686,180.13733 294.167017,187.626997 C292.675702,191.352776 290.867471,194.950183 288.76539,198.367068 C286.26616,202.430824 283.353734,206.239844 280.086282,209.7159 C276.906081,213.098686 273.391915,216.166561 269.609974,218.858349 C265.869152,221.522055 261.867575,223.817696 257.680462,225.704153 C251.78942,228.35783 245.532318,230.196149 239.140828,231.149908 C236.852207,231.491897 234.546536,231.720559 232.234849,231.834889 C231.21891,231.886037 230.200965,231.910107 229.184023,231.920136 C177.849514,232.098652 126.514001,231.922142 75.1794921,231.922142 C74.3892059,231.919133 73.5999225,231.909104 72.8106391,231.884032 C70.7396478,231.818843 68.6706623,231.668408 66.6127087,231.432726 C61.1850065,230.812933 55.8265045,229.598419 50.6625654,227.815261 C44.473661,225.679081 38.5695807,222.725536 33.1448872,219.060935 C27.7903968,215.443469 22.9062672,211.136008 18.6469451,206.277954 C15.068593,202.197148 11.9325204,197.729223 9.31193918,192.97547 C7.17275056,189.094242 5.37856002,185.022462 3.95744879,180.823314 C2.25552517,175.794767 1.09215959,170.584694 0.489415866,165.309433 C0.27178627,163.409938 0.127368473,161.50242 0.0541566737,159.591892 C0.0190551259,158.642145 0.0030087041,157.692397 0,156.74265 L0,0.179717526 L50.1450683,0.178714625 C50.1450683,52.4639744 49.6536466,104.752243 50.1470741,157.034494 C50.1631205,158.055448 50.2333236,159.073392 50.3677124,160.08532 C50.6064029,161.870484 51.0386534,163.630576 51.6584464,165.322471 C52.3354048,167.171821 53.2340045,168.938933 54.327167,170.577674 C56.0902676,173.221322 58.3538159,175.527995 60.966374,177.338232 C62.7946632,178.605899 64.7904369,179.627856 66.8895095,180.366994 C68.5904302,180.967732 70.3595482,181.376916 72.15073,181.593543 C73.0573528,181.702859 73.9689902,181.760024 74.8826333,181.774065 C126.248233,182.240414 177.620852,182.265486 228.986451,181.775068 C229.909121,181.760024 230.829784,181.689821 231.743427,181.553427 C233.625873,181.272614 235.468203,180.724027 237.199211,179.931735 C239.624226,178.821523 241.822586,177.230922 243.636834,175.276267 C245.332741,173.449983 246.684652,171.310795 247.611333,168.996099 C248.474831,166.837855 248.962241,164.531182 249.04849,162.207459 C249.139754,159.783447 248.802779,157.34439 248.039571,155.040726 C247.085812,152.162399 245.471141,149.518751 243.367054,147.337441 C241.293054,145.188223 238.749696,143.497331 235.957619,142.435259 C234.594676,141.916759 233.176573,141.5507 231.733398,141.339088 C230.83179,141.206705 229.922158,141.13951 229.010521,141.124467 C213.23388,140.980049 197.455232,141.122461 181.677588,141.122461 C180.667666,141.120455 179.657745,141.100397 178.647823,141.056269 C176.046297,140.942942 173.449785,140.686199 170.87634,140.286041 C164.777697,139.337296 158.806422,137.582219 153.163096,135.081986 C148.962946,133.221604 144.945323,130.949029 141.187451,128.307387 C137.390467,125.637664 133.858248,122.592855 130.658993,119.23113 C127.667338,116.088037 124.96853,112.668143 122.605695,109.029617 C120.183688,105.30083 118.116708,101.341375 116.439857,97.2224594 C113.343901,89.6184613 111.592835,81.4789138 111.28695,73.2741777 C111.018172,66.0392473 111.862615,58.7672095 113.797212,51.7900247 C115.747855,44.7536687 118.804699,38.0312209 122.820316,31.9335806 C126.846965,25.817888 131.827373,20.3360292 137.530873,15.7437438 C143.39584,11.0210813 150.014989,7.24716345 157.069397,4.61354446 C162.132043,2.72407829 167.413322,1.42231232 172.774833,0.742345192 C174.543951,0.517695286 176.322095,0.360239772 178.104251,0.269978649 C179.155291,0.216824877 180.206332,0.190749441 181.257372,0.180720427 C244.076105,-0.0288859579 306.894838,-0.0900629412 369.712568,0.181723329 C371.75949,0.197769751 373.804406,0.260952537 375.847316,0.3813007 C379.31234,0.58689548 382.768338,0.947939972 386.201269,1.46242837 C396.765832,3.04801543 407.107751,6.10084719 416.8379,10.5106045 C422.781094,13.2043976 428.498634,16.3966326 433.904273,20.0512052 C441.152241,24.9503783 447.843599,30.667919 453.807853,37.0674326 C458.616765,42.2273602 462.955317,47.8245527 466.747287,53.7707549 C470.760898,60.0659667 474.164745,66.7472956 476.898654,73.6953963 C479.765949,80.9834805 481.889091,88.5644119 483.229971,96.280735 C484.192756,101.819759 484.750369,107.428987 484.900804,113.050249 C485.221733,125.13521 483.655201,137.265302 480.241325,148.863857 C478.54943,154.615496 476.40623,160.234752 473.839805,165.653428 C471.107902,171.42312 467.894606,176.96415 464.249059,182.20431 C460.760968,187.216811 456.875729,191.954517 452.643485,196.357254 C447.616943,201.588387 442.09898,206.348157 436.185873,210.551317 C431.17939,214.110614 425.890088,217.271759 420.383157,219.99263 C416.185011,222.065627 411.861504,223.882884 407.443723,225.431364 C399.329248,228.276595 390.895851,230.20016 382.353137,231.17498 C379.318357,231.520981 376.269537,231.745631 373.217708,231.850936 C371.868806,231.898072 370.520906,231.919133 369.171001,231.921139 L313.90211,231.921139 L313.901107,90.9783955 L364.046175,90.9773926 L364.047178,181.776071 C365.960714,181.776071 367.878261,181.788105 369.793803,181.773062 C372.643046,181.741972 375.48928,181.538383 378.311444,181.145246 C382.515607,180.559551 386.661601,179.564673 390.672204,178.173649 C395.657626,176.444647 400.429431,174.104878 404.854232,171.22956 C409.687213,168.090479 414.104994,164.313552 417.959144,160.029157 C420.722137,156.959276 423.198301,153.63165 425.339495,150.099431 C427.529832,146.48698 429.369153,142.662917 430.821354,138.696442 C432.395909,134.392993 433.511135,129.925067 434.149984,125.387941 C434.519051,122.771372 434.724646,120.133741 434.781811,117.491096 C434.786826,117.234353 434.789835,116.977611 434.792843,116.720868 C434.793846,116.710839 434.792843,116.763993 434.792843,116.752961 C434.793846,116.64565 434.794849,116.53834 434.794849,116.431029 L434.794849,116.431029 Z" id="logo-lsd" fill="#191919" fill-rule="nonzero"></path>
    </g>
</svg>