<?xml version="1.0" encoding="UTF-8"?>
<svg width="780px" height="88px" viewBox="0 0 780 88" version="1.1" xmlns="http://www.w3.org/2000/svg" xmlns:xlink="http://www.w3.org/1999/xlink">
    <!-- Generator: Sketch 40.3 (33839) - http://www.bohemiancoding.com/sketch -->
    <title>logo-full</title>
    <desc>Created with Sketch.</desc>
    <defs></defs>
    <g id="Page-1" stroke="none" stroke-width="1" fill="none" fill-rule="evenodd">
        <g id="logo-full" fill="#FFFFFF">
            <polygon id="Fill-1" points="525.7425 17.4375 592.94 17.4375 610.375 0 508.305 0"></polygon>
            <polygon id="Fill-2" points="519.49 34.8745 493.085 34.8745 458.2975 69.7495 458.1725 69.7495 475.61 87.1845 523.19 87.1845 540.6275 69.7495 484.1575 69.7495 501.5525 52.312 558.065 52.312 575.5 34.8745 552.06 34.8745"></polygon>
            <polygon id="Fill-3" points="459.0925 27.58575 431.5075 0.00075 402.99 0.00075 402.0025 0.11325 417.6725 14.90825 417.685 14.89575 436.9 34.98325 402.135 69.74825 362.6825 69.74825 397.6525 34.87575 368.02 34.87575 332.5975 70.20075 349.5825 87.18575 414.2875 87.18575 459.0925 42.38075"></polygon>
            <polygon id="Fill-4" points="337.485 34.8745 320.0475 17.437 286.905 17.437 269.585 34.757 308.7475 34.757 273.865 69.6395 234.146 69.6395 268.91 34.8745 239.3185 34.8745 204.2685 69.9245 221.531 87.1845 285.91 87.1845 338.2225 34.8745"></polygon>
            <polygon id="Fill-5" points="211.9395 0.0005 142.192 69.748 134.302 69.748 116.672 52.3105 87.2645 52.3105 87.1445 52.4305 121.8995 87.1855 154.477 87.1855 241.662 0.0005"></polygon>
            <polygon id="Fill-6" points="108.38 17.58275 125.73 34.76025 155.235 34.76025 120.475 0.00025 87.185 0.00025 0 87.18525 29.6525 87.18525 64.5275 52.31025 99.2575 17.58275"></polygon>
            <polygon id="Fill-7" points="769.0525 87.1855 753.36 87.1855 763.8225 76.723 779.515 76.723"></polygon>
            <polygon id="Fill-8" points="669.66 52.3115 650.48 52.3115 640.0175 62.774 615.605 87.1865 634.785 87.1865 658.325 63.6465 679.25 63.6465 655.71 87.1865 674.89 87.1865 698.43 63.6465 687.0975 52.3115"></polygon>
            <path d="M575.5025,87.1855 L594.6825,87.1855 L619.9675,61.903 L610.3775,52.3105 L575.5025,87.1855 L575.5025,87.1855 Z M610.375,52.3115 L619.965,61.9015 L629.555,52.3115 L610.375,52.3115 L610.375,52.3115 Z" id="Combined-Shape"></path>
            <polygon id="Fill-11" points="759.4625 63.6455 770.7975 52.3105 749.8725 52.3105 747.2575 52.3105 728.075 52.3105 717.6125 62.773 703.665 76.723 693.2025 87.1855 735.9225 87.1855 746.385 76.723 722.845 76.723 735.9225 63.6455"></polygon>
        </g>
    </g>
</svg>