<?xml version="1.0" encoding="UTF-8"?>
<svg width="292px" height="173px" viewBox="0 0 292 173" version="1.1" xmlns="http://www.w3.org/2000/svg" xmlns:xlink="http://www.w3.org/1999/xlink">
    <!-- Generator: Sketch 46.1 (44463) - http://www.bohemiancoding.com/sketch -->
    <title>logo-black</title>
    <desc>Created with Sketch.</desc>
    <defs></defs>
    <g id="Page-1" stroke="none" stroke-width="1" fill="none" fill-rule="evenodd">
        <path d="M202.5088,139.977568 L204.833111,139.979925 C205.374449,139.979336 205.856914,139.977568 206.319657,139.974033 C208.660746,139.948401 210.961508,139.778703 213.219586,139.461993 C216.630989,138.983539 219.9897,138.170993 223.234786,137.037906 C227.267006,135.629944 231.132615,133.723495 234.722403,131.374829 C238.632755,128.817871 242.208414,125.740918 245.329278,122.247971 C247.569106,119.742275 249.571675,117.03035 251.301072,114.15845 C253.075214,111.212011 254.56382,108.095286 255.738634,104.864545 C257.01147,101.36158 257.915467,97.7207359 258.43355,94.0171388 C258.72821,91.9124138 258.897765,89.7676213 258.944569,87.591305 C258.949868,87.2692915 258.949868,87.2692915 258.9534,86.9690795 C258.961642,84.7353134 258.864207,82.7393011 258.650792,80.7456457 C258.24133,76.9171321 257.422699,73.1366406 256.212268,69.4904933 C254.517311,64.387478 252.060241,59.5510887 248.944087,55.1869662 C246.691602,52.0325302 244.097064,49.1258649 241.21964,46.5323747 C239.423716,44.9131742 237.513577,43.4144709 235.506593,42.0486388 C231.089343,39.0426885 226.214943,36.7108158 221.09887,35.1534843 C217.906181,34.1815515 214.623121,33.5127769 211.308565,33.1598289 C209.514407,32.968035 207.695522,32.8687499 205.856914,32.8605007 C195.65597,32.8428239 135.17238,32.5950532 106.361349,32.8613846 C105.580691,32.8737584 104.838007,32.9270836 104.110041,33.0248955 C102.667649,33.2202249 101.259699,33.5828951 99.9153311,34.1073087 C96.8689417,35.2931315 94.1537136,37.3133022 92.1084616,39.9020785 C90.806777,41.5501513 89.7882721,43.410641 89.1112312,45.3872087 C88.3829708,47.5090213 88.0476884,49.7704811 88.117453,52.0378333 C88.1836853,54.1994188 88.6296491,56.3471575 89.4288517,58.3620251 C90.2686767,60.4779454 91.4979473,62.4327117 93.0392455,64.104059 C94.6921082,65.8959035 96.6893787,67.3512985 98.8941769,68.3665395 C100.440185,69.0780332 102.077741,69.5738692 103.752092,69.8363706 C104.609285,69.9698309 105.478841,70.042306 106.362232,70.0561529 C113.106147,70.1209681 139.259351,70.0573314 142.598634,70.0573314 C143.27332,70.0593937 143.912094,70.0714728 144.52408,70.0944528 C145.818699,70.1442426 147.110081,70.2429384 148.393221,70.3908348 C152.279435,70.8377648 156.110309,71.7372224 159.786052,73.066817 C164.907424,74.9178791 169.733254,77.608592 174.025398,81.0034333 C178.591597,84.6151107 182.539039,89.01606 185.644596,93.9579213 C188.248554,98.1025561 190.255833,102.620467 191.585188,107.330467 C193.042003,112.495941 193.685192,117.902998 193.485906,123.290611 C193.268959,129.16257 192.041455,134.992399 189.873746,140.446889 C188.794014,143.163233 187.485264,145.783533 185.966632,148.2689 C184.15805,151.229774 182.050981,154.003569 179.688992,156.533717 C177.387642,158.99846 174.845795,161.231932 172.113494,163.189939 C169.409746,165.128207 166.516426,166.799554 163.487699,168.173635 C159.229112,170.105127 154.705008,171.442971 150.086117,172.136788 C148.431783,172.385737 146.765674,172.552194 145.094855,172.635275 C144.412221,172.67004 143.692791,172.689484 142.878576,172.697439 C125.531907,172.75813 65.42275,172.698912 54.5562446,172.698912 C53.9218868,172.696555 53.3655359,172.688011 52.8386215,172.670924 C51.3335303,172.623491 49.8325602,172.513305 48.3410098,172.34125 C44.4012209,171.888428 40.5144178,171.00105 36.7706763,169.699443 C32.2868998,168.141228 28.0021145,165.984945 24.0611481,163.304544 C20.1764055,160.662148 16.6304778,157.513899 13.5372843,153.962028 C10.9383306,150.978174 8.66170717,147.711784 6.75981116,144.238576 C5.20703273,141.402029 3.90475941,138.425834 2.87330242,135.357131 C1.63873318,131.685352 0.793609601,127.877167 0.35559362,124.017719 C0.198108035,122.633915 0.0927251574,121.238916 0.0394449876,119.835374 C0.0150126445,119.173964 0.00235492463,118.481621 8.52651283e-14,117.744201 L0.000294365579,0.138567613 L32.464991,0.137978384 C32.464991,0.137978384 32.2571689,95.6189571 32.4670516,118.005818 C32.4814755,118.939157 32.5450584,119.834784 32.6610385,120.71303 C32.872393,122.305126 33.2547738,123.868055 33.8005276,125.368231 C34.3969123,127.008055 35.1887557,128.577466 36.1545692,130.035217 C37.7082307,132.380937 39.70138,134.424677 42.0024358,136.029736 C43.6182084,137.157814 45.3808695,138.065521 47.2330177,138.722216 C48.7286892,139.253995 50.2923592,139.620496 51.8842883,139.814352 C52.6678894,139.909512 53.4665032,139.961954 54.2836621,139.974622 C94.3992145,140.341122 104.213363,140.346131 142.784968,139.975506 C143.655407,139.961364 144.487578,139.894782 145.302677,139.772222 C147.015296,139.515024 148.691708,139.013001 150.269213,138.286187 C152.476071,137.268884 154.474225,135.813783 156.125322,134.022823 C157.665442,132.353243 158.89383,130.398182 159.736893,128.278432 C160.521083,126.304516 160.964103,124.196845 161.042699,122.070024 C161.12571,119.846864 160.815743,117.619874 160.125161,115.521336 C159.261198,112.896322 157.80085,110.476654 155.880115,108.471803 C153.988227,106.497592 151.675103,104.954992 149.140615,103.984532 C147.901042,103.509613 146.607894,103.17228 145.28737,102.977245 C144.486695,102.85881 143.666593,102.794879 142.824118,102.781032 C136.07932,102.718574 109.905804,102.77897 106.573292,102.77897 C105.816772,102.777497 105.089395,102.761882 104.385272,102.730948 C102.501038,102.648161 100.624163,102.461081 98.767011,102.170297 C94.3606526,101.480015 90.043487,100.202862 85.962697,98.3827344 C82.9257273,97.0283922 80.0209278,95.3738379 77.3045222,93.4514792 C74.5586801,91.5076137 72.0041756,89.290346 69.6907565,86.8429845 C67.5286413,84.5561879 65.5764088,82.0658127 63.8661448,79.4142834 C62.1152583,76.7002959 60.6195868,73.8166106 59.4059175,70.8147849 C57.1663842,65.2769188 55.898846,59.3463317 55.6777775,53.3694902 C55.4829075,48.089117 56.0966597,42.7904777 57.4937187,37.7178077 C58.9037299,32.5974101 61.114121,27.7009194 64.020098,23.2581349 C66.9331398,18.8035658 70.5367632,14.8103627 74.6611193,11.467079 C78.9055766,8.02598326 83.692844,5.27958819 88.7868404,3.36488947 C92.4452158,1.99021887 96.2622542,1.0430337 100.136694,0.548376188 C101.414829,0.384865218 102.700324,0.270260232 103.989939,0.204561229 C104.704953,0.168029049 105.455586,0.147406044 106.280104,0.139451456 C159.996818,-0.0411471467 162.048251,-0.052047878 206.221339,0.140335299 C207.766758,0.152414488 209.277148,0.201320472 210.752214,0.288820936 C213.311723,0.441725789 215.86711,0.710414086 218.406602,1.09370737 C226.219065,2.27422711 233.865505,4.54747151 241.056267,7.82859164 C245.461742,9.83904003 249.688243,12.2171671 253.674836,14.9305654 C259.039943,18.5817212 263.98764,22.8400771 268.393999,27.6001613 C271.954939,31.446941 275.162935,35.6157342 277.963529,40.0376012 C280.931912,44.7249156 283.449915,49.7012468 285.472501,54.876148 C287.591344,60.2982307 289.162962,65.9442203 290.155563,71.696271 C290.867044,75.8167475 291.280334,79.9946737 291.391604,84.1864468 C291.629745,93.2081278 290.464352,102.242477 287.945466,110.859063 C286.694707,115.139515 285.110137,119.323628 283.211184,123.36014 C281.193897,127.649725 278.818367,131.776388 276.118151,135.684153 C273.53892,139.416033 270.665323,142.94404 267.534451,146.223098 C263.815436,150.119668 259.734352,153.663584 255.363023,156.792094 C251.658432,159.443623 247.747197,161.796708 243.67877,163.820414 C240.575863,165.363309 237.379347,166.715884 234.113361,167.868415 C228.132146,169.979916 221.898955,171.415277 215.566563,172.14268 C213.329973,172.399584 211.07631,172.567219 208.812933,172.645881 C207.851241,172.679762 206.859523,172.696555 205.815703,172.698028 L179.07053,172.698028 C183.479832,169.523558 187.474373,165.77518 190.923748,161.575158 C195.20353,156.364019 198.638482,150.466134 201.061699,144.171404 C201.593323,142.791135 202.075788,141.392012 202.5088,139.977568 Z" id="logo-black" fill="#FFFFFF" fill-rule="nonzero"></path>
    </g>
</svg>